<mxfile host="app.diagrams.net" agent="Mozilla/5.0 (Windows NT 10.0; Win64; x64) AppleWebKit/537.36 (KHTML, like Gecko) Chrome/128.0.0.0 Safari/537.36" version="24.7.6">
  <diagram name="Side-1" id="L-BgPcVqJt-5T5SM18hq">
    <mxGraphModel dx="880" dy="434" grid="1" gridSize="10" guides="1" tooltips="1" connect="1" arrows="1" fold="1" page="1" pageScale="1" pageWidth="827" pageHeight="1169" math="0" shadow="0">
      <root>
        <mxCell id="0" />
        <mxCell id="1" parent="0" />
        <mxCell id="6VGKMiKRWB4f9G4YiS4Q-7" value="" style="endArrow=classic;html=1;rounded=0;entryX=0.5;entryY=1;entryDx=0;entryDy=0;exitX=0;exitY=0;exitDx=0;exitDy=0;" edge="1" parent="1" source="6VGKMiKRWB4f9G4YiS4Q-17" target="6VGKMiKRWB4f9G4YiS4Q-15">
          <mxGeometry relative="1" as="geometry">
            <mxPoint x="320" y="240" as="sourcePoint" />
            <mxPoint x="420" y="270" as="targetPoint" />
          </mxGeometry>
        </mxCell>
        <mxCell id="6VGKMiKRWB4f9G4YiS4Q-13" value="Tryk på mellemrum" style="edgeLabel;html=1;align=center;verticalAlign=middle;resizable=0;points=[];" vertex="1" connectable="0" parent="6VGKMiKRWB4f9G4YiS4Q-7">
          <mxGeometry x="0.0039" y="-1" relative="1" as="geometry">
            <mxPoint x="8" y="5" as="offset" />
          </mxGeometry>
        </mxCell>
        <mxCell id="6VGKMiKRWB4f9G4YiS4Q-14" value="" style="endArrow=classic;html=1;rounded=0;exitX=1;exitY=1;exitDx=0;exitDy=0;entryX=0.5;entryY=0;entryDx=0;entryDy=0;" edge="1" parent="1" source="6VGKMiKRWB4f9G4YiS4Q-15" target="6VGKMiKRWB4f9G4YiS4Q-17">
          <mxGeometry width="50" height="50" relative="1" as="geometry">
            <mxPoint x="350" y="300" as="sourcePoint" />
            <mxPoint x="450" y="330" as="targetPoint" />
          </mxGeometry>
        </mxCell>
        <mxCell id="6VGKMiKRWB4f9G4YiS4Q-15" value="Startmenu" style="ellipse;whiteSpace=wrap;html=1;aspect=fixed;" vertex="1" parent="1">
          <mxGeometry x="290" y="90" width="80" height="80" as="geometry" />
        </mxCell>
        <mxCell id="6VGKMiKRWB4f9G4YiS4Q-16" value="Flashcard spil" style="ellipse;whiteSpace=wrap;html=1;aspect=fixed;" vertex="1" parent="1">
          <mxGeometry x="120" y="140" width="80" height="80" as="geometry" />
        </mxCell>
        <mxCell id="6VGKMiKRWB4f9G4YiS4Q-17" value="Oversigt" style="ellipse;whiteSpace=wrap;html=1;aspect=fixed;" vertex="1" parent="1">
          <mxGeometry x="350" y="240" width="80" height="80" as="geometry" />
        </mxCell>
        <mxCell id="6VGKMiKRWB4f9G4YiS4Q-23" value="" style="endArrow=classic;html=1;rounded=0;entryX=0;entryY=0.5;entryDx=0;entryDy=0;exitX=1;exitY=0;exitDx=0;exitDy=0;" edge="1" parent="1" source="6VGKMiKRWB4f9G4YiS4Q-16" target="6VGKMiKRWB4f9G4YiS4Q-15">
          <mxGeometry width="50" height="50" relative="1" as="geometry">
            <mxPoint x="200" y="310" as="sourcePoint" />
            <mxPoint x="250" y="260" as="targetPoint" />
          </mxGeometry>
        </mxCell>
        <mxCell id="6VGKMiKRWB4f9G4YiS4Q-26" value="Gennemfør spil" style="edgeLabel;html=1;align=center;verticalAlign=middle;resizable=0;points=[];" vertex="1" connectable="0" parent="6VGKMiKRWB4f9G4YiS4Q-23">
          <mxGeometry x="-0.02" y="1" relative="1" as="geometry">
            <mxPoint as="offset" />
          </mxGeometry>
        </mxCell>
        <mxCell id="6VGKMiKRWB4f9G4YiS4Q-24" value="" style="endArrow=classic;html=1;rounded=0;exitX=0;exitY=1;exitDx=0;exitDy=0;entryX=1;entryY=0.5;entryDx=0;entryDy=0;" edge="1" parent="1" source="6VGKMiKRWB4f9G4YiS4Q-15" target="6VGKMiKRWB4f9G4YiS4Q-16">
          <mxGeometry width="50" height="50" relative="1" as="geometry">
            <mxPoint x="110" y="310" as="sourcePoint" />
            <mxPoint x="230" y="210" as="targetPoint" />
          </mxGeometry>
        </mxCell>
      </root>
    </mxGraphModel>
  </diagram>
</mxfile>
